<?xml version="1.0" encoding="iso-8859-1"?>
<!-- Generator: Adobe Illustrator 19.0.0, SVG Export Plug-In . SVG Version: 6.00 Build 0)  -->
<svg xmlns="http://www.w3.org/2000/svg" xmlns:xlink="http://www.w3.org/1999/xlink" version="1.1" id="Capa_1" x="0px" y="0px" viewBox="0 0 460 460" style="enable-background:new 0 0 460 460;" xml:space="preserve" width="512" height="512">
<g id="XMLID_505_">
	<path id="XMLID_333_" style="fill:#D1B262;" d="M234.982,50h-39.991V20c0-11.046,8.952-20,19.996-20   c11.043,0,19.996,8.954,19.996,20V50z M234.982,360h-39.991l-19.996,50l29.993,50h19.996l29.993-50L234.982,360z M304.967,230   c0,11.046-8.952,20-19.996,20s-19.996-8.954-19.996-20c0-10.098,7.49-18.426,17.212-19.784l12.522-81.415   c1.11-7.218-0.98-14.537-5.734-20.08c-4.754-5.543-11.668-8.722-18.97-8.722h-35.024V90h35.024c10.222,0,19.902,4.451,26.558,12.21   c6.656,7.76,9.582,18.006,8.028,28.111l-12.462,81.021C299.632,214.226,304.967,221.481,304.967,230z"/>
	<path id="XMLID_816_" style="fill:#E9CC85;" d="M224.985,40h-19.996V19.998c0-5.522,4.476-9.998,9.998-9.998h0   c5.522,0,9.998,4.476,9.998,9.998V40z M228.563,380h-27.152l0,0c-8.914,26.265-6.745,53.417,6.316,79.072l0.472,0.928h13.576   l0.472-0.928C235.308,433.417,237.477,406.265,228.563,380L228.563,380z M284.971,250c-5.522,0-9.998-4.477-9.998-10   s4.476-10,9.998-10s9.998,4.477,9.998,10S290.493,250,284.971,250z"/>
	<path id="XMLID_1486_" style="fill:#595147;" d="M219.986,418.651V460h-9.998v-41.349c-2.985-1.73-4.999-4.952-4.999-8.651   c0-5.523,4.476-10,9.998-10s9.998,4.477,9.998,10C224.985,413.699,222.971,416.922,219.986,418.651z"/>
	<path id="XMLID_1485_" style="fill:#485A5B;" d="M234.98,370h-39.987c-5.523,0-10-4.477-10-10V210h59.987v150   C244.98,365.523,240.503,370,234.98,370z"/>
	<path id="XMLID_1483_" style="fill:#546869;" d="M224.985,370h-19.996V250h19.996V370z"/>
	<path id="XMLID_1477_" style="fill:#2D3B3B;" d="M244.98,270h-59.987V110h59.987V270z"/>
	<path id="XMLID_1150_" style="fill:#3E4E4E;" d="M224.985,270h-19.996V150h19.996V270z"/>
	<path id="XMLID_1474_" style="fill:#485A5B;" d="M244.98,250h-59.987c-11.043,0-19.996-8.952-19.996-19.996V79.989   c0-27.608,22.381-49.989,49.989-49.989h0c27.608,0,49.989,22.381,49.989,49.989v150.015C264.976,241.048,256.023,250,244.98,250z"/>
	<path id="XMLID_1473_" style="fill:#546869;" d="M234.982,79.996V250h-39.991V79.996c0-11.043,8.952-19.996,19.996-19.996h0   C226.03,60,234.982,68.952,234.982,79.996z"/>
	<path id="XMLID_832_" style="fill:#D1B262;" d="M264.974,110H165c-5.523,0-10-4.477-10-10V90c0-5.523,4.477-10,10-10h99.974   c5.523,0,10,4.477,10,10v10C274.974,105.523,270.496,110,264.974,110z"/>
	<path id="XMLID_831_" style="fill:#E9CC85;" d="M234.982,110h-39.991V80h39.991V110z"/>
</g>















</svg>
